<svg width="48" height="48" viewBox="0 0 48 48" fill="none" xmlns="http://www.w3.org/2000/svg">
<path opacity="0.4" d="M24.1731 44C23.9254 44 23.6778 43.9431 23.4543 43.8274L16.2521 40.0992C14.2084 39.0402 12.6097 37.8517 11.3614 36.4671C8.6291 33.4391 7.10892 29.552 7.08476 25.5198L7.00012 12.2485C6.99013 10.7168 7.97874 9.34206 9.45663 8.82431L22.6811 4.21358C23.4664 3.93313 24.3422 3.92921 25.1416 4.19985L38.4164 8.65368C39.9024 9.14986 40.9071 10.5148 40.9151 12.0446L40.9997 25.3257C41.0259 29.352 39.5581 33.2547 36.8681 36.3161C35.6338 37.7203 34.0492 38.9264 32.0257 40.0051L24.8879 43.8176C24.6664 43.9372 24.4208 43.998 24.1731 44Z" fill="white"/>
<path d="M22.6378 28.6418C22.2512 28.6438 21.8647 28.5045 21.5667 28.2182L17.733 24.5312C17.141 23.9585 17.135 23.0289 17.7209 22.4523C18.3068 21.8738 19.2632 21.8679 19.8572 22.4386L22.6157 25.0901L29.3507 18.4496C29.9387 17.871 30.8951 17.8652 31.487 18.4359C32.081 19.0085 32.0871 19.9401 31.5011 20.5147L23.703 28.2045C23.409 28.4947 23.0244 28.6399 22.6378 28.6418Z" fill="white"/>
</svg>
