<svg width="44" height="32" viewBox="0 0 44 32" fill="none" xmlns="http://www.w3.org/2000/svg">
<path d="M21.8977 21.0801C14.9977 21.0801 9.17578 22.2076 9.17578 26.5591C9.17578 30.9123 15.0353 32.0002 21.8977 32.0002C28.7976 32.0002 34.6195 30.8727 34.6195 26.5212C34.6195 22.168 28.76 21.0801 21.8977 21.0801Z" fill="white"/>
<path opacity="0.4" d="M21.899 16.9341C26.5713 16.9341 30.3176 13.1661 30.3176 8.46703C30.3176 3.76613 26.5713 0 21.899 0C17.2268 0 13.4805 3.76613 13.4805 8.46703C13.4805 13.1661 17.2268 16.9341 21.899 16.9341Z" fill="white"/>
<path opacity="0.4" d="M40.1771 10.4394C41.3859 5.6845 37.8419 1.41406 33.3291 1.41406C32.8384 1.41406 32.3692 1.4681 31.9107 1.55995C31.8499 1.57436 31.7818 1.60498 31.746 1.65901C31.7048 1.72746 31.7353 1.81931 31.78 1.87875C33.1357 3.79153 33.9147 6.12037 33.9147 8.62031C33.9147 11.0158 33.2001 13.2492 31.9466 15.1025C31.8176 15.2934 31.9322 15.551 32.1597 15.5906C32.4749 15.6465 32.7972 15.6753 33.1267 15.6843C36.4128 15.7707 39.3623 13.6436 40.1771 10.4394Z" fill="white"/>
<path d="M43.6188 21.6329C43.0171 20.3433 41.5648 19.459 39.3567 19.0249C38.3144 18.7692 35.4939 18.4089 32.8704 18.4576C32.831 18.463 32.8095 18.49 32.8059 18.508C32.8006 18.5332 32.8113 18.5765 32.8632 18.6035C34.0756 19.2068 38.7621 21.8311 38.173 27.3659C38.1479 27.6054 38.3395 27.8126 38.5777 27.7765C39.731 27.6108 42.6983 26.9696 43.6188 24.9722C44.1274 23.9167 44.1274 22.6902 43.6188 21.6329Z" fill="white"/>
<path opacity="0.4" d="M12.0902 1.55995C11.6335 1.46629 11.1625 1.41406 10.6718 1.41406C6.159 1.41406 2.615 5.6845 3.82558 10.4394C4.63861 13.6436 7.58807 15.7707 10.8742 15.6843C11.2037 15.6753 11.5278 15.6447 11.8412 15.5906C12.0687 15.551 12.1833 15.2934 12.0543 15.1025C10.8008 13.2474 10.0862 11.0158 10.0862 8.62031C10.0862 6.11857 10.867 3.78973 12.2227 1.87875C12.2657 1.81931 12.2979 1.72746 12.2549 1.65901C12.2191 1.60318 12.1528 1.57436 12.0902 1.55995Z" fill="white"/>
<path d="M4.64311 19.0253C2.43505 19.4593 0.984495 20.3437 0.382785 21.6333C-0.127595 22.6905 -0.127595 23.9171 0.382785 24.9744C1.30326 26.97 4.27062 27.613 5.4239 27.7769C5.66208 27.8129 5.8519 27.6076 5.82683 27.3662C5.23766 21.8332 9.9242 19.209 11.1384 18.6056C11.1885 18.5768 11.1992 18.5354 11.1939 18.5084C11.1903 18.4903 11.1706 18.4633 11.1312 18.4597C8.50588 18.4093 5.68715 18.7695 4.64311 19.0253Z" fill="white"/>
</svg>
