<svg width="48" height="48" viewBox="0 0 48 48" fill="none" xmlns="http://www.w3.org/2000/svg">
<path d="M33.0276 6C39.92 6 43.9929 9.95724 43.9929 16.6757V16.7503H35.5236C31.5822 16.7572 28.3893 19.8703 28.3822 23.7131C28.3769 27.5646 31.5733 30.6916 35.5236 30.6968H44V31.3087C44 38.0272 39.9271 42 33.0347 42H14.9671C8.07289 42 4 38.0272 4 31.3087V16.6757C4 9.95724 8.07289 6 14.9671 6H33.0276ZM24.7662 13.7498H13.4791C12.64 13.7533 11.9591 14.4172 11.9555 15.237C11.952 16.0604 12.6347 16.7312 13.4791 16.7347H24.7804C25.6249 16.7312 26.3076 16.0604 26.304 15.2353C26.3004 14.412 25.6107 13.7464 24.7662 13.7498Z" fill="white"/>
<path opacity="0.4" d="M32.0748 24.5941C32.4931 26.4965 34.161 27.8349 36.0652 27.8001H42.565C43.3573 27.8001 44 27.144 44 26.3329V21.2698C43.9983 20.4604 43.3573 19.8025 42.565 19.8008H35.9122C33.7461 19.8077 31.9966 21.6057 32 23.8213C32 24.0807 32.0255 24.34 32.0748 24.5941Z" fill="white"/>
<path d="M36 25.8008C37.1046 25.8008 38 24.9053 38 23.8008C38 22.6962 37.1046 21.8008 36 21.8008C34.8954 21.8008 34 22.6962 34 23.8008C34 24.9053 34.8954 25.8008 36 25.8008Z" fill="white"/>
</svg>
