<svg width="48" height="48" viewBox="0 0 48 48" fill="none" xmlns="http://www.w3.org/2000/svg">
<g opacity="0.4">
<g opacity="0.4">
<path opacity="0.72" d="M28.8366 10.9795C27.8845 10.8036 27.0101 11.4112 26.8289 12.3406C26.6476 13.2699 27.2571 14.1773 28.1833 14.3592C30.9718 14.9028 33.125 17.0613 33.6707 19.8594V19.8614C33.8261 20.6669 34.5352 21.2525 35.3518 21.2525C35.4614 21.2525 35.5709 21.2425 35.6824 21.2225C36.6086 21.0366 37.2181 20.1312 37.0369 19.1999C36.2222 15.0207 33.0055 11.793 28.8366 10.9795Z" fill="white"/>
<path opacity="0.72" d="M28.7118 4.01586C28.2656 3.9519 27.8175 4.08381 27.4609 4.36762C27.0944 4.65542 26.8654 5.07113 26.8156 5.53682C26.71 6.47817 27.3892 7.32958 28.3294 7.43551C34.8127 8.15901 39.8519 13.2095 40.5809 19.7131C40.6785 20.5845 41.4095 21.242 42.2819 21.242C42.3477 21.242 42.4114 21.238 42.4771 21.23C42.9333 21.1801 43.3396 20.9542 43.6264 20.5945C43.9112 20.2347 44.0407 19.787 43.9889 19.3293C43.0807 11.2149 36.8005 4.91724 28.7118 4.01586Z" fill="white"/>
</g>
</g>
<path fill-rule="evenodd" clip-rule="evenodd" d="M22.0635 25.9448C30.0416 33.9207 31.8515 24.6934 36.9313 29.7696C41.8286 34.6655 44.6432 35.6464 38.4385 41.8494C37.6613 42.474 32.7232 49.9885 15.3692 32.6393C-1.98696 15.288 5.52317 10.3449 6.14794 9.5679C12.3677 3.34769 13.3317 6.17877 18.229 11.0747C23.3087 16.153 14.0853 17.9688 22.0635 25.9448Z" fill="white"/>
</svg>
