<svg width="48" height="48" viewBox="0 0 48 48" fill="none" xmlns="http://www.w3.org/2000/svg">
<path d="M32.101 36.1797C31.1921 36.1597 30.461 35.3997 30.461 34.4797C30.4413 33.5597 31.1723 32.8017 32.0812 32.7817H32.101C33.0296 32.7817 33.7805 33.5417 33.7805 34.4797C33.7805 35.4197 33.0296 36.1797 32.101 36.1797ZM24.0395 28.8197C23.1306 28.8617 22.3798 28.1397 22.3403 27.2217C22.3403 26.3017 23.0516 25.5417 23.9605 25.4997C24.8496 25.4997 25.5807 26.2017 25.6004 27.0997C25.64 28.0217 24.9286 28.7817 24.0395 28.8197ZM24.0395 36.0797C23.1306 36.1217 22.3798 35.3997 22.3403 34.4797C22.3403 33.5597 23.0516 32.8017 23.9605 32.7597C24.8496 32.7597 25.5807 33.4617 25.6004 34.3617C25.64 35.2817 24.9286 36.0417 24.0395 36.0797ZM15.9188 28.8197C15.0099 28.8617 14.2591 28.1397 14.2195 27.2217C14.2195 26.3017 14.9308 25.5417 15.8397 25.4997C16.7289 25.4997 17.4599 26.2017 17.4797 27.0997C17.5192 28.0217 16.8079 28.7817 15.9188 28.8197ZM15.899 36.0797C14.9901 36.1217 14.2393 35.3997 14.1998 34.4797C14.1998 33.5597 14.9111 32.8017 15.82 32.7597C16.7091 32.7597 17.4402 33.4617 17.4599 34.3617C17.4995 35.2817 16.7881 36.0417 15.899 36.0797ZM30.4808 27.2017C30.4808 26.2817 31.1921 25.5417 32.101 25.5217C32.9901 25.5217 33.7014 26.2397 33.7409 27.1217C33.7607 28.0417 33.0494 28.8017 32.1603 28.8197C31.2514 28.8397 30.5005 28.1397 30.4808 27.2217V27.2017ZM6 18.5137V33.7397C6 40.0597 9.99122 43.9997 16.2547 43.9997H31.7256C38.0483 43.9997 42 40.1397 42 33.8617V18.5137H6Z" fill="white"/>
<path opacity="0.4" d="M6.00781 18.5145C6.0335 17.3405 6.13229 15.0105 6.31802 14.2605C7.26643 10.0425 10.4871 7.36247 15.0908 6.98047H32.913C37.4772 7.38247 40.7373 10.0805 41.6857 14.2605C41.8695 14.9905 41.9683 17.3385 41.994 18.5145H6.00781Z" fill="white"/>
<path d="M16.6112 13.18C17.4806 13.18 18.1327 12.522 18.1327 11.64V5.542C18.1327 4.66 17.4806 4 16.6112 4C15.7419 4 15.0898 4.66 15.0898 5.542V11.64C15.0898 12.522 15.7419 13.18 16.6112 13.18Z" fill="white"/>
<path d="M31.3886 13.18C32.2382 13.18 32.91 12.522 32.91 11.64V5.542C32.91 4.66 32.2382 4 31.3886 4C30.5192 4 29.8672 4.66 29.8672 5.542V11.64C29.8672 12.522 30.5192 13.18 31.3886 13.18Z" fill="white"/>
</svg>
